<?xml version="1.0" encoding="utf-8" ?>
<svg baseProfile="tiny" height="2000px" version="1.2" width="2000px" xmlns="http://www.w3.org/2000/svg" xmlns:ev="http://www.w3.org/2001/xml-events" xmlns:xlink="http://www.w3.org/1999/xlink"><defs /><circle cx="1000.0" cy="1000.0" fill="lightgray" r="1000.0" stroke="black" stroke-width="2" /><line stroke="blue" stroke-width="1" x1="1000.0" x2="2000.0" y1="1000.0" y2="1000.0" /><line stroke="blue" stroke-width="1" x1="1300.0" x2="1396.5779" y1="1000.0" y2="947.7895" /><line stroke="blue" stroke-width="1" x1="1500.0" x2="1594.8669" y1="1000.0" y2="921.6843" /><line stroke="blue" stroke-width="1" x1="1700.0" x2="1793.1559" y1="1000.0" y2="895.579" /><line stroke="blue" stroke-width="1" x1="1900.0" x2="1991.4449" y1="1000.0" y2="869.4738" /><line stroke="blue" stroke-width="1" x1="1000.0" x2="1965.9258" y1="1000.0" y2="741.181" /><line stroke="blue" stroke-width="1" x1="1289.7777" x2="1369.5518" y1="922.3543" y2="846.9266" /><line stroke="blue" stroke-width="1" x1="1482.9629" x2="1554.3277" y1="870.5905" y2="770.3899" /><line stroke="blue" stroke-width="1" x1="1676.1481" x2="1739.1036" y1="818.8267" y2="693.8533" /><line stroke="blue" stroke-width="1" x1="1869.3332" x2="1923.8795" y1="767.0629" y2="617.3166" /><line stroke="blue" stroke-width="1" x1="1000.0" x2="1866.0254" y1="1000.0" y2="500.0" /><line stroke="blue" stroke-width="1" x1="1259.8076" x2="1317.3413" y1="850.0" y2="756.4954" /><line stroke="blue" stroke-width="1" x1="1433.0127" x2="1476.012" y1="750.0" y2="634.7431" /><line stroke="blue" stroke-width="1" x1="1606.2178" x2="1634.6827" y1="650.0" y2="512.9909" /><line stroke="blue" stroke-width="1" x1="1779.4229" x2="1793.3533" y1="550.0" y2="391.2386" /><line stroke="blue" stroke-width="1" x1="1000.0" x2="1707.1068" y1="1000.0" y2="292.8932" /><line stroke="blue" stroke-width="1" x1="1212.132" x2="1243.5046" y1="787.868" y2="682.6587" /><line stroke="blue" stroke-width="1" x1="1353.5534" x2="1365.2569" y1="646.4466" y2="523.988" /><line stroke="blue" stroke-width="1" x1="1494.9747" x2="1487.0091" y1="505.0253" y2="365.3173" /><line stroke="blue" stroke-width="1" x1="1636.3961" x2="1608.7614" y1="363.6039" y2="206.6467" /><line stroke="blue" stroke-width="1" x1="1000.0" x2="1500.0" y1="1000.0" y2="133.9746" /><line stroke="blue" stroke-width="1" x1="1150.0" x2="1153.0734" y1="740.1924" y2="630.4482" /><line stroke="blue" stroke-width="1" x1="1250.0" x2="1229.6101" y1="566.9873" y2="445.6723" /><line stroke="blue" stroke-width="1" x1="1350.0" x2="1306.1467" y1="393.7822" y2="260.8964" /><line stroke="blue" stroke-width="1" x1="1450.0" x2="1382.6834" y1="220.5771" y2="76.1205" /><line stroke="blue" stroke-width="1" x1="1000.0" x2="1258.819" y1="1000.0" y2="34.0742" /><line stroke="blue" stroke-width="1" x1="1077.6457" x2="1052.2105" y1="710.2223" y2="603.4221" /><line stroke="blue" stroke-width="1" x1="1129.4095" x2="1078.3157" y1="517.0371" y2="405.1331" /><line stroke="blue" stroke-width="1" x1="1181.1733" x2="1104.421" y1="323.8519" y2="206.8441" /><line stroke="blue" stroke-width="1" x1="1232.9371" x2="1130.5262" y1="130.6668" y2="8.5551" /><line stroke="blue" stroke-width="1" x1="1000.0" x2="1000.0" y1="1000.0" y2="0.0" /><line stroke="blue" stroke-width="1" x1="1000.0" x2="947.7895" y1="700.0" y2="603.4221" /><line stroke="blue" stroke-width="1" x1="1000.0" x2="921.6843" y1="500.0" y2="405.1331" /><line stroke="blue" stroke-width="1" x1="1000.0" x2="895.579" y1="300.0" y2="206.8441" /><line stroke="blue" stroke-width="1" x1="1000.0" x2="869.4738" y1="100.0" y2="8.5551" /><line stroke="blue" stroke-width="1" x1="1000.0" x2="741.181" y1="1000.0" y2="34.0742" /><line stroke="blue" stroke-width="1" x1="922.3543" x2="846.9266" y1="710.2223" y2="630.4482" /><line stroke="blue" stroke-width="1" x1="870.5905" x2="770.3899" y1="517.0371" y2="445.6723" /><line stroke="blue" stroke-width="1" x1="818.8267" x2="693.8533" y1="323.8519" y2="260.8964" /><line stroke="blue" stroke-width="1" x1="767.0629" x2="617.3166" y1="130.6668" y2="76.1205" /><line stroke="blue" stroke-width="1" x1="1000.0" x2="500.0" y1="1000.0" y2="133.9746" /><line stroke="blue" stroke-width="1" x1="850.0" x2="756.4954" y1="740.1924" y2="682.6587" /><line stroke="blue" stroke-width="1" x1="750.0" x2="634.7431" y1="566.9873" y2="523.988" /><line stroke="blue" stroke-width="1" x1="650.0" x2="512.9909" y1="393.7822" y2="365.3173" /><line stroke="blue" stroke-width="1" x1="550.0" x2="391.2386" y1="220.5771" y2="206.6467" /><line stroke="blue" stroke-width="1" x1="1000.0" x2="292.8932" y1="1000.0" y2="292.8932" /><line stroke="blue" stroke-width="1" x1="787.868" x2="682.6587" y1="787.868" y2="756.4954" /><line stroke="blue" stroke-width="1" x1="646.4466" x2="523.988" y1="646.4466" y2="634.7431" /><line stroke="blue" stroke-width="1" x1="505.0253" x2="365.3173" y1="505.0253" y2="512.9909" /><line stroke="blue" stroke-width="1" x1="363.6039" x2="206.6467" y1="363.6039" y2="391.2386" /><line stroke="blue" stroke-width="1" x1="1000.0" x2="133.9746" y1="1000.0" y2="500.0" /><line stroke="blue" stroke-width="1" x1="740.1924" x2="630.4482" y1="850.0" y2="846.9266" /><line stroke="blue" stroke-width="1" x1="566.9873" x2="445.6723" y1="750.0" y2="770.3899" /><line stroke="blue" stroke-width="1" x1="393.7822" x2="260.8964" y1="650.0" y2="693.8533" /><line stroke="blue" stroke-width="1" x1="1000.0" x2="34.0742" y1="1000.0" y2="741.181" /><line stroke="blue" stroke-width="1" x1="710.2223" x2="603.4221" y1="922.3543" y2="947.7895" /><line stroke="blue" stroke-width="1" x1="517.0371" x2="405.1331" y1="870.5905" y2="921.6843" /><line stroke="blue" stroke-width="1" x1="323.8519" x2="206.8441" y1="818.8267" y2="895.579" /><line stroke="blue" stroke-width="1" x1="130.6668" x2="8.5551" y1="767.0629" y2="869.4738" /><line stroke="blue" stroke-width="1" x1="1000.0" x2="0.0" y1="1000.0" y2="1000.0" /><line stroke="blue" stroke-width="1" x1="700.0" x2="603.4221" y1="1000.0" y2="1052.2105" /><line stroke="blue" stroke-width="1" x1="500.0" x2="405.1331" y1="1000.0" y2="1078.3157" /><line stroke="blue" stroke-width="1" x1="300.0" x2="206.8441" y1="1000.0" y2="1104.421" /><line stroke="blue" stroke-width="1" x1="100.0" x2="8.5551" y1="1000.0" y2="1130.5262" /><line stroke="blue" stroke-width="1" x1="1000.0" x2="34.0742" y1="1000.0" y2="1258.819" /><line stroke="blue" stroke-width="1" x1="710.2223" x2="630.4482" y1="1077.6457" y2="1153.0734" /><line stroke="blue" stroke-width="1" x1="517.0371" x2="445.6723" y1="1129.4095" y2="1229.6101" /><line stroke="blue" stroke-width="1" x1="323.8519" x2="260.8964" y1="1181.1733" y2="1306.1467" /><line stroke="blue" stroke-width="1" x1="130.6668" x2="76.1205" y1="1232.9371" y2="1382.6834" /><line stroke="blue" stroke-width="1" x1="1000.0" x2="133.9746" y1="1000.0" y2="1500.0" /><line stroke="blue" stroke-width="1" x1="740.1924" x2="682.6587" y1="1150.0" y2="1243.5046" /><line stroke="blue" stroke-width="1" x1="566.9873" x2="523.988" y1="1250.0" y2="1365.2569" /><line stroke="blue" stroke-width="1" x1="393.7822" x2="365.3173" y1="1350.0" y2="1487.0091" /><line stroke="blue" stroke-width="1" x1="220.5771" x2="206.6467" y1="1450.0" y2="1608.7614" /><line stroke="blue" stroke-width="1" x1="1000.0" x2="292.8932" y1="1000.0" y2="1707.1068" /><line stroke="blue" stroke-width="1" x1="787.868" x2="756.4954" y1="1212.132" y2="1317.3413" /><line stroke="blue" stroke-width="1" x1="646.4466" x2="634.7431" y1="1353.5534" y2="1476.012" /><line stroke="blue" stroke-width="1" x1="505.0253" x2="512.9909" y1="1494.9747" y2="1634.6827" /><line stroke="blue" stroke-width="1" x1="363.6039" x2="391.2386" y1="1636.3961" y2="1793.3533" /><line stroke="blue" stroke-width="1" x1="1000.0" x2="500.0" y1="1000.0" y2="1866.0254" /><line stroke="blue" stroke-width="1" x1="850.0" x2="846.9266" y1="1259.8076" y2="1369.5518" /><line stroke="blue" stroke-width="1" x1="750.0" x2="770.3899" y1="1433.0127" y2="1554.3277" /><line stroke="blue" stroke-width="1" x1="650.0" x2="693.8533" y1="1606.2178" y2="1739.1036" /><line stroke="blue" stroke-width="1" x1="550.0" x2="617.3166" y1="1779.4229" y2="1923.8795" /><line stroke="blue" stroke-width="1" x1="1000.0" x2="741.181" y1="1000.0" y2="1965.9258" /><line stroke="blue" stroke-width="1" x1="922.3543" x2="947.7895" y1="1289.7777" y2="1396.5779" /><line stroke="blue" stroke-width="1" x1="870.5905" x2="921.6843" y1="1482.9629" y2="1594.8669" /><line stroke="blue" stroke-width="1" x1="818.8267" x2="895.579" y1="1676.1481" y2="1793.1559" /><line stroke="blue" stroke-width="1" x1="767.0629" x2="869.4738" y1="1869.3332" y2="1991.4449" /><line stroke="blue" stroke-width="1" x1="1000.0" x2="1000.0" y1="1000.0" y2="2000.0" /><line stroke="blue" stroke-width="1" x1="1000.0" x2="1052.2105" y1="1300.0" y2="1396.5779" /><line stroke="blue" stroke-width="1" x1="1000.0" x2="1078.3157" y1="1500.0" y2="1594.8669" /><line stroke="blue" stroke-width="1" x1="1000.0" x2="1104.421" y1="1700.0" y2="1793.1559" /><line stroke="blue" stroke-width="1" x1="1000.0" x2="1130.5262" y1="1900.0" y2="1991.4449" /><line stroke="blue" stroke-width="1" x1="1000.0" x2="1258.819" y1="1000.0" y2="1965.9258" /><line stroke="blue" stroke-width="1" x1="1077.6457" x2="1153.0734" y1="1289.7777" y2="1369.5518" /><line stroke="blue" stroke-width="1" x1="1129.4095" x2="1229.6101" y1="1482.9629" y2="1554.3277" /><line stroke="blue" stroke-width="1" x1="1181.1733" x2="1306.1467" y1="1676.1481" y2="1739.1036" /><line stroke="blue" stroke-width="1" x1="1232.9371" x2="1382.6834" y1="1869.3332" y2="1923.8795" /><line stroke="blue" stroke-width="1" x1="1000.0" x2="1500.0" y1="1000.0" y2="1866.0254" /><line stroke="blue" stroke-width="1" x1="1150.0" x2="1243.5046" y1="1259.8076" y2="1317.3413" /><line stroke="blue" stroke-width="1" x1="1250.0" x2="1365.2569" y1="1433.0127" y2="1476.012" /><line stroke="blue" stroke-width="1" x1="1350.0" x2="1487.0091" y1="1606.2178" y2="1634.6827" /><line stroke="blue" stroke-width="1" x1="1450.0" x2="1608.7614" y1="1779.4229" y2="1793.3533" /><line stroke="blue" stroke-width="1" x1="1000.0" x2="1707.1068" y1="1000.0" y2="1707.1068" /><line stroke="blue" stroke-width="1" x1="1212.132" x2="1317.3413" y1="1212.132" y2="1243.5046" /><line stroke="blue" stroke-width="1" x1="1353.5534" x2="1476.012" y1="1353.5534" y2="1365.2569" /><line stroke="blue" stroke-width="1" x1="1494.9747" x2="1634.6827" y1="1494.9747" y2="1487.0091" /><line stroke="blue" stroke-width="1" x1="1636.3961" x2="1793.3533" y1="1636.3961" y2="1608.7614" /><line stroke="blue" stroke-width="1" x1="1000.0" x2="1866.0254" y1="1000.0" y2="1500.0" /><line stroke="blue" stroke-width="1" x1="1259.8076" x2="1369.5518" y1="1150.0" y2="1153.0734" /><line stroke="blue" stroke-width="1" x1="1433.0127" x2="1554.3277" y1="1250.0" y2="1229.6101" /><line stroke="blue" stroke-width="1" x1="1606.2178" x2="1739.1036" y1="1350.0" y2="1306.1467" /><line stroke="blue" stroke-width="1" x1="1779.4229" x2="1923.8795" y1="1450.0" y2="1382.6834" /><line stroke="blue" stroke-width="1" x1="1000.0" x2="1965.9258" y1="1000.0" y2="1258.819" /><line stroke="blue" stroke-width="1" x1="1289.7777" x2="1396.5779" y1="1077.6457" y2="1052.2105" /><line stroke="blue" stroke-width="1" x1="1482.9629" x2="1594.8669" y1="1129.4095" y2="1078.3157" /><line stroke="blue" stroke-width="1" x1="1676.1481" x2="1793.1559" y1="1181.1733" y2="1104.421" /><line stroke="blue" stroke-width="1" x1="1869.3332" x2="1991.4449" y1="1232.9371" y2="1130.5262" /><circle cx="550.0" cy="1000.0" fill="orange" fill-opacity="0.5" r="23.0" stroke="darkorange" stroke-width="1" /><circle cx="700.0" cy="1300.0" fill="orange" fill-opacity="0.5" r="23.0" stroke="darkorange" stroke-width="1" /><circle cx="700.0" cy="1150.0" fill="orange" fill-opacity="0.5" r="23.0" stroke="darkorange" stroke-width="1" /><circle cx="700.0" cy="1000.0" fill="orange" fill-opacity="0.5" r="23.0" stroke="darkorange" stroke-width="1" /><circle cx="700.0" cy="850.0" fill="orange" fill-opacity="0.5" r="23.0" stroke="darkorange" stroke-width="1" /><circle cx="700.0" cy="700.0" fill="orange" fill-opacity="0.5" r="23.0" stroke="darkorange" stroke-width="1" /><circle cx="850.0" cy="1300.0" fill="orange" fill-opacity="0.5" r="23.0" stroke="darkorange" stroke-width="1" /><circle cx="850.0" cy="1150.0" fill="orange" fill-opacity="0.5" r="23.0" stroke="darkorange" stroke-width="1" /><circle cx="850.0" cy="1000.0" fill="orange" fill-opacity="0.5" r="23.0" stroke="darkorange" stroke-width="1" /><circle cx="850.0" cy="850.0" fill="orange" fill-opacity="0.5" r="23.0" stroke="darkorange" stroke-width="1" /><circle cx="850.0" cy="700.0" fill="orange" fill-opacity="0.5" r="23.0" stroke="darkorange" stroke-width="1" /><circle cx="1000.0" cy="1450.0" fill="orange" fill-opacity="0.5" r="23.0" stroke="darkorange" stroke-width="1" /><circle cx="1000.0" cy="1300.0" fill="orange" fill-opacity="0.5" r="23.0" stroke="darkorange" stroke-width="1" /><circle cx="1000.0" cy="1150.0" fill="orange" fill-opacity="0.5" r="23.0" stroke="darkorange" stroke-width="1" /><circle cx="1000.0" cy="1000.0" fill="orange" fill-opacity="0.5" r="23.0" stroke="darkorange" stroke-width="1" /><circle cx="1000.0" cy="850.0" fill="orange" fill-opacity="0.5" r="23.0" stroke="darkorange" stroke-width="1" /><circle cx="1000.0" cy="700.0" fill="orange" fill-opacity="0.5" r="23.0" stroke="darkorange" stroke-width="1" /><circle cx="1000.0" cy="550.0" fill="orange" fill-opacity="0.5" r="23.0" stroke="darkorange" stroke-width="1" /><circle cx="1150.0" cy="1300.0" fill="orange" fill-opacity="0.5" r="23.0" stroke="darkorange" stroke-width="1" /><circle cx="1150.0" cy="1150.0" fill="orange" fill-opacity="0.5" r="23.0" stroke="darkorange" stroke-width="1" /><circle cx="1150.0" cy="1000.0" fill="orange" fill-opacity="0.5" r="23.0" stroke="darkorange" stroke-width="1" /><circle cx="1150.0" cy="850.0" fill="orange" fill-opacity="0.5" r="23.0" stroke="darkorange" stroke-width="1" /><circle cx="1150.0" cy="700.0" fill="orange" fill-opacity="0.5" r="23.0" stroke="darkorange" stroke-width="1" /><circle cx="1300.0" cy="1300.0" fill="orange" fill-opacity="0.5" r="23.0" stroke="darkorange" stroke-width="1" /><circle cx="1300.0" cy="1150.0" fill="orange" fill-opacity="0.5" r="23.0" stroke="darkorange" stroke-width="1" /><circle cx="1300.0" cy="1000.0" fill="orange" fill-opacity="0.5" r="23.0" stroke="darkorange" stroke-width="1" /><circle cx="1300.0" cy="850.0" fill="orange" fill-opacity="0.5" r="23.0" stroke="darkorange" stroke-width="1" /><circle cx="1300.0" cy="700.0" fill="orange" fill-opacity="0.5" r="23.0" stroke="darkorange" stroke-width="1" /><circle cx="1450.0" cy="1000.0" fill="orange" fill-opacity="0.5" r="23.0" stroke="darkorange" stroke-width="1" /><circle cx="1000.0" cy="1000.0" fill="orange" fill-opacity="0.5" r="40.0" stroke="darkorange" stroke-width="1" /><circle cx="550.0" cy="1000.0" fill="red" fill-opacity="0.7" r="30" /><circle cx="700.0" cy="1300.0" fill="red" fill-opacity="0.7" r="30" /><circle cx="700.0" cy="1150.0" fill="red" fill-opacity="0.7" r="30" /><circle cx="700.0" cy="1000.0" fill="red" fill-opacity="0.7" r="30" /><circle cx="700.0" cy="850.0" fill="red" fill-opacity="0.7" r="30" /><circle cx="700.0" cy="700.0" fill="red" fill-opacity="0.7" r="30" /><circle cx="850.0" cy="1300.0" fill="red" fill-opacity="0.7" r="30" /><circle cx="850.0" cy="1150.0" fill="red" fill-opacity="0.7" r="30" /><circle cx="850.0" cy="1000.0" fill="red" fill-opacity="0.7" r="30" /><circle cx="850.0" cy="850.0" fill="red" fill-opacity="0.7" r="30" /><circle cx="850.0" cy="700.0" fill="red" fill-opacity="0.7" r="30" /><circle cx="1000.0" cy="1450.0" fill="red" fill-opacity="0.7" r="30" /><circle cx="1000.0" cy="1300.0" fill="red" fill-opacity="0.7" r="30" /><circle cx="1000.0" cy="1150.0" fill="red" fill-opacity="0.7" r="30" /><circle cx="1000.0" cy="1000.0" fill="red" fill-opacity="0.7" r="30" /><circle cx="1000.0" cy="850.0" fill="red" fill-opacity="0.7" r="30" /><circle cx="1000.0" cy="700.0" fill="red" fill-opacity="0.7" r="30" /><circle cx="1000.0" cy="550.0" fill="red" fill-opacity="0.7" r="30" /><circle cx="1150.0" cy="1300.0" fill="red" fill-opacity="0.7" r="30" /><circle cx="1150.0" cy="1150.0" fill="red" fill-opacity="0.7" r="30" /><circle cx="1150.0" cy="1000.0" fill="red" fill-opacity="0.7" r="30" /><circle cx="1150.0" cy="850.0" fill="red" fill-opacity="0.7" r="30" /><circle cx="1150.0" cy="700.0" fill="red" fill-opacity="0.7" r="30" /><circle cx="1300.0" cy="1300.0" fill="red" fill-opacity="0.7" r="30" /><circle cx="1300.0" cy="1150.0" fill="red" fill-opacity="0.7" r="30" /><circle cx="1300.0" cy="1000.0" fill="red" fill-opacity="0.7" r="30" /><circle cx="1300.0" cy="850.0" fill="red" fill-opacity="0.7" r="30" /><circle cx="1300.0" cy="700.0" fill="red" fill-opacity="0.7" r="30" /><circle cx="1450.0" cy="1000.0" fill="red" fill-opacity="0.7" r="30" /></svg>